<svg xmlns="http://www.w3.org/2000/svg" viewBox="0 0 920 680" width="920" height="680">
<rect width="920" height="680" fill="#ffffff" rx="4"/>
<style>text{font-family:Segoe UI,Arial,sans-serif}</style>
<defs><marker id="da" markerWidth="7" markerHeight="5" refX="6" refY="2.5" orient="auto"><polygon points="0 0,7 2.5,0 5" fill="#94a3b8"/></marker></defs>

<text x="460" y="22" font-size="11" font-weight="700" fill="#1e293b" text-anchor="middle">DSR / ERASURE WORKFLOW — Field-Level Overwrite with 72-Hour Safety Hold</text>

<rect x="310" y="34" width="300" height="32" rx="6" fill="#fef2f2" stroke="#dc2626"/>
<text x="460" y="55" font-size="11" font-weight="700" fill="#dc2626" text-anchor="middle">DSR / EXIT REQUEST RECEIVED</text>
<line x1="460" y1="66" x2="460" y2="82" stroke="#94a3b8" stroke-width="1.5" marker-end="url(#da)"/>

<rect x="80" y="84" width="760" height="68" rx="8" fill="#f8fafc" stroke="#cbd5e1"/>
<circle cx="118" cy="118" r="17" fill="#dbeafe" stroke="#0369a1" stroke-width="1.5"/>
<text x="118" y="123" font-size="14" font-weight="700" fill="#0369a1" text-anchor="middle">1</text>
<text x="152" y="106" font-size="12" font-weight="700" fill="#0369a1" text-anchor="start">LOCATE</text>
<text x="152" y="122" font-size="10" fill="#1e293b" text-anchor="start">Query subject-locator index</text>
<text x="152" y="138" font-size="9" fill="#6b7280" text-anchor="start">MDM + source-system IDs · Customer = payer, pharmacy, or EHR system [KC-08]</text>
<line x1="460" y1="152" x2="460" y2="168" stroke="#94a3b8" stroke-width="1.5" marker-end="url(#da)"/>

<rect x="80" y="170" width="760" height="68" rx="8" fill="#f8fafc" stroke="#cbd5e1"/>
<circle cx="118" cy="204" r="17" fill="#fefce8" stroke="#b45309" stroke-width="1.5"/>
<text x="118" y="209" font-size="14" font-weight="700" fill="#b45309" text-anchor="middle">2</text>
<text x="152" y="192" font-size="12" font-weight="700" fill="#b45309" text-anchor="start">MASK (immediate)</text>
<text x="152" y="208" font-size="10" fill="#1e293b" text-anchor="start">Apply row filter / column mask</text>
<text x="152" y="224" font-size="9" fill="#6b7280" text-anchor="start">Prevents further query exposure while full erasure processes</text>
<line x1="460" y1="238" x2="460" y2="254" stroke="#94a3b8" stroke-width="1.5" marker-end="url(#da)"/>

<rect x="80" y="256" width="760" height="68" rx="8" fill="#f8fafc" stroke="#cbd5e1"/>
<circle cx="118" cy="290" r="17" fill="#fef2f2" stroke="#dc2626" stroke-width="1.5"/>
<text x="118" y="295" font-size="14" font-weight="700" fill="#dc2626" text-anchor="middle">3</text>
<text x="152" y="278" font-size="12" font-weight="700" fill="#dc2626" text-anchor="start">OVERWRITE</text>
<text x="152" y="294" font-size="10" fill="#1e293b" text-anchor="start">UPDATE identity columns at EACH layer independently (Bronze, Silver, Gold)</text>
<text x="152" y="310" font-size="9" fill="#6b7280" text-anchor="start">[REDACTED] / NULL / one-way hash — Row preserved, business data intact</text>
<line x1="460" y1="324" x2="460" y2="340" stroke="#94a3b8" stroke-width="1.5" marker-end="url(#da)"/>

<rect x="80" y="342" width="760" height="72" rx="8" fill="#f5f3ff" stroke="#7c3aed" stroke-width="2"/>
<circle cx="118" cy="378" r="17" fill="#f5f3ff" stroke="#7c3aed" stroke-width="1.5"/>
<text x="118" y="383" font-size="14" font-weight="700" fill="#7c3aed" text-anchor="middle">4</text>
<text x="152" y="364" font-size="12" font-weight="700" fill="#7c3aed" text-anchor="start">SOFT-DELETE HOLD</text>
<text x="152" y="380" font-size="10" fill="#1e293b" text-anchor="start">72-hour review window before physical purge</text>
<text x="152" y="396" font-size="9" fill="#6b7280" text-anchor="start">Overwrite committed but VACUUM not yet run — Allows rollback — Approval gate required</text>
<rect x="700" y="352" width="120" height="20" rx="10" fill="#7c3aed"/><text x="760" y="366" font-size="9" font-weight="700" fill="white" text-anchor="middle">NEW IN v5</text>
<line x1="460" y1="414" x2="460" y2="430" stroke="#94a3b8" stroke-width="1.5" marker-end="url(#da)"/>
<text x="520" y="426" font-size="8" fill="#7c3aed" text-anchor="start">72hr elapsed + approval</text>

<rect x="80" y="432" width="760" height="68" rx="8" fill="#f8fafc" stroke="#cbd5e1"/>
<circle cx="118" cy="466" r="17" fill="#fef2f2" stroke="#dc2626" stroke-width="1.5"/>
<text x="118" y="471" font-size="14" font-weight="700" fill="#dc2626" text-anchor="middle">5</text>
<text x="152" y="454" font-size="12" font-weight="700" fill="#dc2626" text-anchor="start">PHYSICAL PURGE</text>
<text x="152" y="470" font-size="10" fill="#1e293b" text-anchor="start">REORG TABLE APPLY (PURGE) → Set retention=0hrs → VACUUM table</text>
<text x="152" y="486" font-size="9" fill="#6b7280" text-anchor="start">Restore retention=7 days — Pre-overwrite values permanently removed</text>
<line x1="460" y1="500" x2="460" y2="516" stroke="#94a3b8" stroke-width="1.5" marker-end="url(#da)"/>

<rect x="80" y="518" width="760" height="68" rx="8" fill="#f8fafc" stroke="#cbd5e1"/>
<circle cx="118" cy="552" r="17" fill="#f0fdf4" stroke="#16a34a" stroke-width="1.5"/>
<text x="118" y="557" font-size="14" font-weight="700" fill="#16a34a" text-anchor="middle">6</text>
<text x="152" y="540" font-size="12" font-weight="700" fill="#16a34a" text-anchor="start">CLEANUP &amp; EVIDENCE</text>
<text x="152" y="556" font-size="10" fill="#1e293b" text-anchor="start">Restart clusters (clear cache) · Force refresh materialized views</text>
<text x="152" y="572" font-size="9" fill="#6b7280" text-anchor="start">skipChangeCommits on DLT · Vault: delete identity mapping · Log to erasure_audit table</text>

<rect x="80" y="605" width="760" height="28" rx="6" fill="#f5f3ff" stroke="#7c3aed"/>
<text x="460" y="624" font-size="9" fill="#7c3aed" text-anchor="middle">DLT: apply UPDATE independently at each streaming table · MVs: force immediate refresh for DSR compliance</text>

<text x="460" y="660" font-size="8" fill="#94a3b8" text-anchor="middle">Analytical Data Platform · Delta Lake Data Lifecycle v5.1 · March 2026</text>
</svg>